<svg width="30" height="30" viewBox="0 0 30 30" fill="none" xmlns="http://www.w3.org/2000/svg">
<path d="M23.6842 15C23.6842 15.4342 23.3289 15.7895 22.8947 15.7895H15.7895V22.8947C15.7895 23.3289 15.4342 23.6842 15 23.6842C14.5658 23.6842 14.2105 23.3289 14.2105 22.8947V15.7895H7.10526C6.67105 15.7895 6.31579 15.4342 6.31579 15C6.31579 14.5658 6.67105 14.2105 7.10526 14.2105H14.2105V7.10526C14.2105 6.67105 14.5658 6.31579 15 6.31579C15.4342 6.31579 15.7895 6.67105 15.7895 7.10526V14.2105H22.8947C23.3289 14.2105 23.6842 14.5658 23.6842 15ZM30 15C30 23.2895 23.2895 30 15 30C6.71053 30 0 23.2895 0 15C0 6.71053 6.71053 0 15 0C23.2895 0 30 6.71053 30 15ZM28.4211 15C28.4211 7.57895 22.4211 1.57895 15 1.57895C7.57895 1.57895 1.57895 7.57895 1.57895 15C1.57895 22.4211 7.57895 28.4211 15 28.4211C22.4211 28.4211 28.4211 22.4211 28.4211 15Z" fill="white"/>
</svg>
