<svg width="24" height="24" viewBox="0 0 24 24" fill="none" xmlns="http://www.w3.org/2000/svg">
<path d="M17.7895 12.7789C18.2184 12.7789 18.5684 12.4289 18.5684 12C18.5684 11.5711 18.2184 11.2211 17.7895 11.2211H12.7789V6.21053C12.7789 5.78165 12.4289 5.43158 12 5.43158C11.5711 5.43158 11.2211 5.78165 11.2211 6.21053V11.2211H6.21053C5.78165 11.2211 5.43158 11.5711 5.43158 12C5.43158 12.4289 5.78165 12.7789 6.21053 12.7789H11.2211V17.7895C11.2211 18.2184 11.5711 18.5684 12 18.5684C12.4289 18.5684 12.7789 18.2184 12.7789 17.7895V12.7789H17.7895ZM12 23.2C18.1894 23.2 23.2 18.1894 23.2 12C23.2 5.8106 18.1894 0.8 12 0.8C5.8106 0.8 0.8 5.8106 0.8 12C0.8 18.1894 5.8106 23.2 12 23.2ZM12 2.35789C17.3316 2.35789 21.6421 6.66835 21.6421 12C21.6421 17.3316 17.3316 21.6421 12 21.6421C6.66835 21.6421 2.35789 17.3316 2.35789 12C2.35789 6.66835 6.66835 2.35789 12 2.35789Z" fill="black" stroke="black" stroke-width="0.4"/>
</svg>
