<svg width="24" height="25" viewBox="0 0 24 25" fill="none" xmlns="http://www.w3.org/2000/svg">
<g id="eva:arrow-up-fill">
<path id="Vector" d="M6.38776 6L17.6122 6C18.0554 5.99936 18.4896 6.1254 18.8647 6.36355C19.2398 6.60171 19.5405 6.94223 19.7318 7.3457C19.9558 7.82442 20.0421 8.35704 19.9808 8.88285C19.9195 9.40866 19.7132 9.90652 19.3852 10.3197L13.773 17.1827C13.5527 17.4393 13.2804 17.645 12.9745 17.786C12.6686 17.927 12.3363 18 12 18C11.6637 18 11.3314 17.927 11.0255 17.786C10.7196 17.645 10.4473 17.4393 10.227 17.1827L4.61477 10.3197C4.28683 9.90652 4.08046 9.40866 4.01918 8.88285C3.9579 8.35703 4.04418 7.82442 4.26817 7.3457C4.45953 6.94223 4.76016 6.60171 5.13527 6.36355C5.51038 6.1254 5.94463 5.99935 6.38776 6Z" fill="black"/>
</g>
</svg>
