<svg width="29" height="25" viewBox="0 0 29 25" fill="none" xmlns="http://www.w3.org/2000/svg">
<path d="M29 15.1691C28.9982 17.7748 27.9523 20.2735 26.0917 22.1166C24.2311 23.9597 21.7079 24.9967 19.0759 25H1.20879C0.888196 25 0.580737 24.8739 0.354046 24.6495C0.127354 24.4251 0 24.1207 0 23.8033C0 23.4859 0.127354 23.1815 0.354046 22.9571C0.580737 22.7327 0.888196 22.6066 1.20879 22.6066H19.0759C21.0558 22.589 22.9486 21.798 24.3423 20.4057C25.7361 19.0135 26.5181 17.1326 26.5181 15.1724C26.5181 13.2122 25.7361 11.3313 24.3423 9.93903C22.9486 8.54675 21.0558 7.75576 19.0759 7.73817H4.58251L8.53826 10.9579C8.66167 11.0574 8.764 11.1801 8.83938 11.3189C8.91476 11.4577 8.96171 11.6099 8.97753 11.7667C8.99335 11.9235 8.97773 12.0819 8.93157 12.2327C8.8854 12.3835 8.80961 12.5238 8.70853 12.6456C8.60744 12.7673 8.48307 12.8681 8.34255 12.9421C8.20202 13.0161 8.04811 13.0619 7.88965 13.0769C7.73119 13.0919 7.5713 13.0758 7.41917 13.0294C7.26703 12.983 7.12564 12.9074 7.00311 12.8068L0.441207 7.46533C0.426702 7.45336 0.415823 7.439 0.401922 7.42643C0.370456 7.39817 0.340594 7.36821 0.312471 7.33668L0.302801 7.32771C0.29434 7.31813 0.28346 7.31095 0.274999 7.30138V7.29779C0.262307 7.28283 0.253241 7.26548 0.241758 7.24992C0.217983 7.21865 0.195989 7.18609 0.175879 7.15239C0.171044 7.14461 0.164395 7.13743 0.160164 7.12905C0.155934 7.12068 0.145054 7.10931 0.139615 7.09854C0.134175 7.08777 0.126923 7.06623 0.11967 7.05067C0.103558 7.01583 0.0890385 6.98029 0.0761538 6.94416L0.0719231 6.93339C0.0469723 6.865 0.0293482 6.79421 0.0193409 6.72217C0.0157146 6.70003 0.00846189 6.67909 0.00664871 6.65695C0.00483553 6.63481 0.00664871 6.61447 0.00664871 6.59353C0.00664871 6.57259 0.0012087 6.55942 0.0012087 6.54147C0.0012087 6.52352 0.00604432 6.50677 0.00664871 6.48882V6.42599C0.00664871 6.40505 0.0157146 6.38231 0.0193409 6.36017C0.029313 6.28813 0.046938 6.21733 0.0719231 6.14895L0.0761538 6.13818C0.0894505 6.10168 0.103351 6.06638 0.11967 6.03168C0.126923 6.01612 0.131153 5.99937 0.139615 5.98381C0.148076 5.96825 0.154121 5.96406 0.160164 5.95329C0.166208 5.94252 0.171044 5.93774 0.175879 5.92996C0.195597 5.89629 0.217187 5.86373 0.240548 5.83243C0.252032 5.81687 0.261098 5.79952 0.27379 5.78456V5.78157C0.285878 5.76661 0.300988 5.75643 0.31368 5.74207C0.341482 5.71216 0.369889 5.68224 0.400713 5.65591C0.414614 5.64335 0.425493 5.62899 0.439999 5.61702L0.446042 5.61163L7.00552 0.27554C7.12805 0.174944 7.26944 0.0992971 7.42158 0.0529425C7.57372 0.0065878 7.73361 -0.00956168 7.89207 0.0054208C8.05053 0.0204033 8.20444 0.0662223 8.34496 0.140249C8.48549 0.214275 8.60986 0.31505 8.71094 0.436789C8.81202 0.558528 8.88782 0.698832 8.93398 0.849649C8.98015 1.00047 8.99577 1.15882 8.97995 1.31563C8.96413 1.47244 8.91718 1.62461 8.8418 1.76341C8.76642 1.90221 8.66409 2.0249 8.54068 2.12444L4.58493 5.34477H19.0783C21.7089 5.34825 24.2308 6.38449 26.0907 8.2262C27.9507 10.0679 28.997 12.5648 29 15.1691Z" fill="#222222"/>
</svg>
