<svg width="24" height="25" viewBox="0 0 24 25" fill="none" xmlns="http://www.w3.org/2000/svg">
<path d="M17.6122 18H6.38776C5.94463 18.0006 5.51038 17.8746 5.13526 17.6364C4.76015 17.3983 4.45952 17.0578 4.26817 16.6543C4.04417 16.1756 3.9579 15.643 4.01918 15.1172C4.08046 14.5913 4.28683 14.0935 4.61477 13.6803L10.227 6.81725C10.4473 6.56072 10.7196 6.35498 11.0255 6.21398C11.3314 6.07297 11.6637 6 12 6C12.3363 6 12.6686 6.07297 12.9745 6.21398C13.2804 6.35498 13.5527 6.56072 13.773 6.81725L19.3852 13.6803C19.7132 14.0935 19.9195 14.5913 19.9808 15.1172C20.0421 15.643 19.9558 16.1756 19.7318 16.6543C19.5405 17.0578 19.2398 17.3983 18.8647 17.6364C18.4896 17.8746 18.0554 18.0006 17.6122 18Z" fill="black"/>
</svg>
