<svg width="185" height="185" viewBox="0 0 185 185" fill="none" xmlns="http://www.w3.org/2000/svg">
<path id="Vector" d="M157.25 0H27.75C20.3902 0 13.3319 2.92365 8.12779 8.12779C2.92365 13.3319 0 20.3902 0 27.75V157.25C0 164.61 2.92365 171.668 8.12779 176.872C13.3319 182.076 20.3902 185 27.75 185H157.25C158.771 184.979 160.288 184.824 161.783 184.538L164.558 183.89H165.205H165.667L169.09 182.595L170.292 181.947C171.217 181.393 172.235 180.93 173.16 180.283C174.395 179.374 175.569 178.385 176.675 177.322L177.322 176.49C178.231 175.57 179.066 174.58 179.82 173.53L180.653 172.327C181.299 171.298 181.856 170.215 182.317 169.09C182.571 168.646 182.788 168.182 182.965 167.702C183.428 166.592 183.705 165.39 184.075 164.188V162.8C184.599 160.993 184.91 159.13 185 157.25V27.75C185 20.3902 182.076 13.3319 176.872 8.12779C171.668 2.92365 164.61 0 157.25 0ZM27.75 166.5C25.2967 166.5 22.944 165.525 21.2093 163.791C19.4746 162.056 18.5 159.703 18.5 157.25V117.382L48.9325 86.8575C49.7924 85.9905 50.8155 85.3024 51.9427 84.8327C53.0699 84.3631 54.2789 84.1214 55.5 84.1214C56.7211 84.1214 57.9301 84.3631 59.0573 84.8327C60.1845 85.3024 61.2076 85.9905 62.0675 86.8575L141.617 166.5H27.75ZM166.5 157.25C166.491 158.39 166.272 159.519 165.853 160.58C165.641 161.031 165.394 161.464 165.113 161.875C164.865 162.267 164.587 162.638 164.28 162.985L114.792 113.498L122.933 105.358C123.792 104.491 124.815 103.802 125.943 103.333C127.07 102.863 128.279 102.621 129.5 102.621C130.721 102.621 131.93 102.863 133.057 103.333C134.185 103.802 135.208 104.491 136.067 105.358L166.5 135.883V157.25ZM166.5 109.705L149.11 92.5C143.816 87.4772 136.797 84.6771 129.5 84.6771C122.203 84.6771 115.184 87.4772 109.89 92.5L101.75 100.64L75.11 74C69.8164 68.9772 62.7973 66.1771 55.5 66.1771C48.2027 66.1771 41.1836 68.9772 35.89 74L18.5 91.205V27.75C18.5 25.2967 19.4746 22.944 21.2093 21.2093C22.944 19.4746 25.2967 18.5 27.75 18.5H157.25C159.703 18.5 162.056 19.4746 163.791 21.2093C165.525 22.944 166.5 25.2967 166.5 27.75V109.705ZM106.375 37C103.631 37 100.948 37.8138 98.6665 39.3384C96.3847 40.863 94.6063 43.0299 93.5562 45.5653C92.506 48.1006 92.2312 50.8904 92.7666 53.5819C93.302 56.2734 94.6234 58.7457 96.5639 60.6861C98.5043 62.6266 100.977 63.948 103.668 64.4834C106.36 65.0188 109.149 64.744 111.685 63.6938C114.22 62.6437 116.387 60.8653 117.912 58.5835C119.436 56.3018 120.25 53.6192 120.25 50.875C120.25 47.1951 118.788 43.666 116.186 41.0639C113.584 38.4618 110.055 37 106.375 37Z" fill="black"/>
</svg>
