<svg width="17" height="22" viewBox="0 0 17 22" fill="none" xmlns="http://www.w3.org/2000/svg">
<path d="M0 11C0 11.2785 0.111942 11.5455 0.311199 11.7425C0.510457 11.9394 0.780707 12.05 1.0625 12.05H9.12687L6.68313 14.4545C6.58354 14.5521 6.50449 14.6682 6.45055 14.7962C6.39661 14.9241 6.36884 15.0614 6.36884 15.2C6.36884 15.3386 6.39661 15.4759 6.45055 15.6038C6.50449 15.7318 6.58354 15.8479 6.68313 15.9455C6.7819 16.0439 6.89941 16.122 7.02889 16.1753C7.15836 16.2286 7.29724 16.2561 7.4375 16.2561C7.57776 16.2561 7.71664 16.2286 7.84611 16.1753C7.97559 16.122 8.0931 16.0439 8.19188 15.9455L12.4419 11.7455C12.5386 11.6456 12.6144 11.5279 12.665 11.399C12.7713 11.1434 12.7713 10.8566 12.665 10.601C12.6144 10.4721 12.5386 10.3544 12.4419 10.2545L8.19188 6.0545C8.09281 5.9566 7.9752 5.87894 7.84577 5.82596C7.71633 5.77297 7.5776 5.7457 7.4375 5.7457C7.2974 5.7457 7.15867 5.77297 7.02923 5.82596C6.8998 5.87894 6.78219 5.9566 6.68313 6.0545C6.58406 6.1524 6.50548 6.26862 6.45186 6.39654C6.39825 6.52445 6.37065 6.66155 6.37065 6.8C6.37065 6.93845 6.39825 7.07555 6.45186 7.20346C6.50548 7.33138 6.58406 7.4476 6.68313 7.5455L9.12687 9.95H1.0625C0.780707 9.95 0.510457 10.0606 0.311199 10.2575C0.111942 10.4545 0 10.7215 0 11ZM13.8125 0.5H3.1875C2.34212 0.5 1.53137 0.831874 0.933597 1.42261C0.335825 2.01335 0 2.81457 0 3.65V6.8C0 7.07848 0.111942 7.34555 0.311199 7.54246C0.510457 7.73937 0.780707 7.85 1.0625 7.85C1.34429 7.85 1.61454 7.73937 1.8138 7.54246C2.01306 7.34555 2.125 7.07848 2.125 6.8V3.65C2.125 3.37152 2.23694 3.10445 2.4362 2.90754C2.63546 2.71062 2.90571 2.6 3.1875 2.6H13.8125C14.0943 2.6 14.3645 2.71062 14.5638 2.90754C14.7631 3.10445 14.875 3.37152 14.875 3.65V18.35C14.875 18.6285 14.7631 18.8955 14.5638 19.0925C14.3645 19.2894 14.0943 19.4 13.8125 19.4H3.1875C2.90571 19.4 2.63546 19.2894 2.4362 19.0925C2.23694 18.8955 2.125 18.6285 2.125 18.35V15.2C2.125 14.9215 2.01306 14.6545 1.8138 14.4575C1.61454 14.2606 1.34429 14.15 1.0625 14.15C0.780707 14.15 0.510457 14.2606 0.311199 14.4575C0.111942 14.6545 0 14.9215 0 15.2V18.35C0 19.1854 0.335825 19.9866 0.933597 20.5774C1.53137 21.1681 2.34212 21.5 3.1875 21.5H13.8125C14.6579 21.5 15.4686 21.1681 16.0664 20.5774C16.6642 19.9866 17 19.1854 17 18.35V3.65C17 2.81457 16.6642 2.01335 16.0664 1.42261C15.4686 0.831874 14.6579 0.5 13.8125 0.5Z" fill="white"/>
</svg>
