<svg width="25" height="24" viewBox="0 0 25 24" fill="none" xmlns="http://www.w3.org/2000/svg">
<path d="M24.1057 21.713L19.5739 17.1945C21.036 15.3317 21.8294 13.0313 21.8265 10.6632C21.8265 8.55425 21.2011 6.49262 20.0294 4.73906C18.8577 2.9855 17.1923 1.61877 15.2439 0.811695C13.2954 0.00462027 11.1514 -0.206547 9.08294 0.204896C7.01448 0.616339 5.11447 1.63191 3.62319 3.12319C2.13191 4.61447 1.11634 6.51448 0.704896 8.58294C0.293453 10.6514 0.50462 12.7954 1.31169 14.7439C2.11877 16.6923 3.4855 18.3577 5.23906 19.5294C6.99262 20.7011 9.05425 21.3265 11.1632 21.3265C13.5313 21.3294 15.8317 20.536 17.6945 19.0739L22.213 23.6057C22.3369 23.7307 22.4843 23.8298 22.6468 23.8975C22.8092 23.9652 22.9834 24 23.1594 24C23.3353 24 23.5095 23.9652 23.672 23.8975C23.8344 23.8298 23.9818 23.7307 24.1057 23.6057C24.2307 23.4818 24.3298 23.3344 24.3975 23.172C24.4652 23.0095 24.5 22.8353 24.5 22.6594C24.5 22.4834 24.4652 22.3092 24.3975 22.1468C24.3298 21.9843 24.2307 21.8369 24.1057 21.713ZM3.16581 10.6632C3.16581 9.08149 3.63485 7.53527 4.51362 6.22011C5.39239 4.90494 6.64142 3.87989 8.10275 3.27458C9.56409 2.66927 11.1721 2.5109 12.7235 2.81948C14.2748 3.12806 15.6998 3.88974 16.8183 5.0082C17.9367 6.12666 18.6984 7.55167 19.007 9.10301C19.3156 10.6544 19.1572 12.2624 18.5519 13.7237C17.9466 15.1851 16.9215 16.4341 15.6064 17.3128C14.2912 18.1916 12.745 18.6607 11.1632 18.6607C9.04219 18.6607 7.00801 17.8181 5.5082 16.3183C4.0084 14.8185 3.16581 12.7843 3.16581 10.6632Z" fill="white"/>
</svg>
