<svg width="30" height="38" viewBox="0 0 30 38" fill="none" xmlns="http://www.w3.org/2000/svg">
<path d="M27.795 10.0856H22.3276V8.23703C22.3276 6.27591 21.5596 4.3951 20.1925 3.00837C18.8254 1.62165 16.9711 0.84259 15.0378 0.84259C13.1044 0.84259 11.2502 1.62165 9.88304 3.00837C8.51592 4.3951 7.74788 6.27591 7.74788 8.23703V10.0856H2.28048C1.79713 10.0856 1.33358 10.2804 0.991797 10.6271C0.650018 10.9738 0.458008 11.444 0.458008 11.9343V32.269C0.458008 33.7398 1.03404 35.1504 2.05937 36.1905C3.08471 37.2305 4.47537 37.8148 5.92541 37.8148H24.1501C25.6001 37.8148 26.9908 37.2305 28.0161 36.1905C29.0415 35.1504 29.6175 33.7398 29.6175 32.269V11.9343C29.6175 11.444 29.4255 10.9738 29.0837 10.6271C28.7419 10.2804 28.2784 10.0856 27.795 10.0856ZM11.3928 8.23703C11.3928 7.25647 11.7768 6.31607 12.4604 5.6227C13.144 4.92934 14.0711 4.53981 15.0378 4.53981C16.0045 4.53981 16.9316 4.92934 17.6151 5.6227C18.2987 6.31607 18.6827 7.25647 18.6827 8.23703V10.0856H11.3928V8.23703ZM25.9726 32.269C25.9726 32.7593 25.7806 33.2295 25.4388 33.5761C25.097 33.9228 24.6334 34.1176 24.1501 34.1176H5.92541C5.44206 34.1176 4.97851 33.9228 4.63673 33.5761C4.29495 33.2295 4.10294 32.7593 4.10294 32.269V13.7829H7.74788V15.6315C7.74788 16.1218 7.93989 16.592 8.28167 16.9386C8.62345 17.2853 9.087 17.4801 9.57035 17.4801C10.0537 17.4801 10.5173 17.2853 10.859 16.9386C11.2008 16.592 11.3928 16.1218 11.3928 15.6315V13.7829H18.6827V15.6315C18.6827 16.1218 18.8747 16.592 19.2165 16.9386C19.5583 17.2853 20.0218 17.4801 20.5052 17.4801C20.9885 17.4801 21.4521 17.2853 21.7938 16.9386C22.1356 16.592 22.3276 16.1218 22.3276 15.6315V13.7829H25.9726V32.269Z" fill="white"/>
</svg>
